<?xml version="1.0" encoding="UTF-8" standalone="no" ?>
<!DOCTYPE svg PUBLIC "-//W3C//DTD SVG 1.1//EN" "http://www.w3.org/Graphics/SVG/1.1/DTD/svg11.dtd">
<svg xmlns="http://www.w3.org/2000/svg" xmlns:xlink="http://www.w3.org/1999/xlink" version="1.1" width="1080" height="1080" viewBox="0 0 1080 1080" xml:space="preserve">
<desc>Created with Fabric.js 5.2.4</desc>
<defs>
</defs>
<rect x="0" y="0" width="100%" height="100%" fill="transparent"></rect>
<g transform="matrix(1 0 0 1 540 540)" id="26f33cc5-55e3-4a97-9a6a-aaa1b3796aee"  >
<rect style="stroke: none; stroke-width: 1; stroke-dasharray: none; stroke-linecap: butt; stroke-dashoffset: 0; stroke-linejoin: miter; stroke-miterlimit: 4; fill: rgb(255,255,255); fill-rule: nonzero; opacity: 1; visibility: hidden;" vector-effect="non-scaling-stroke"  x="-540" y="-540" rx="0" ry="0" width="1080" height="1080" />
</g>
<g transform="matrix(1 0 0 1 540 540)" id="b535a325-5d45-469c-ac32-5a61fbd5c46b"  >
</g>
<g transform="matrix(1.68 0 0 1.68 541.71 541.69)"  >
<g style="opacity: 1;" vector-effect="non-scaling-stroke"   >
		<g transform="matrix(1 0 0 1 61 119.95)"  >
<path style="stroke: none; stroke-width: 1; stroke-dasharray: none; stroke-linecap: butt; stroke-dashoffset: 0; stroke-linejoin: miter; stroke-miterlimit: 4; fill: rgb(255,255,255); fill-rule: nonzero; opacity: 1;" vector-effect="non-scaling-stroke"  transform=" translate(-392.25, -447.4)" d="M 321.7 550.8 C 325.29670605834787 548.3676143752391 329.55895443456546 547.1099017396339 333.9 547.1999999999999 C 341.2281880954916 547.3709785904832 347.93690311897046 551.350724790852 351.59999999999997 557.6999999999999 C 356.27983174365147 552.9379571887566 362.7254794796421 550.3307288910524 369.4 550.4999999999999 C 375.2245174611937 550.624855029392 380.8047696104226 552.8640644905475 385.09999999999997 556.7999999999998 C 388.2777325956057 544.956121935343 399.1404444014664 536.8194138526261 411.4 537.0999999999998 C 414.73673117603937 537.1828803468545 418.02777058682153 537.8953734151683 421.09999999999997 539.1999999999998 L 421.09999999999997 539.7999999999998 C 421.49999999999994 524.0999999999998 434.09999999999997 511.59999999999985 449.49999999999994 511.09999999999985 C 446.537190080139 504.98451968469936 445.39184633020153 498.1471645714362 446.19999999999993 491.39999999999986 C 447.69999999999993 479.09999999999985 455.29999999999995 468.9999999999999 465.5999999999999 463.6999999999999 L 465.69999999999993 463.7999999999999 C 460.3999999999999 458.2999999999999 457.19999999999993 450.7999999999999 457.3999999999999 442.4999999999999 C 457.5364444148417 436.15271335617444 459.71006985125365 430.01748026952777 463.5999999999999 424.9999999999999 C 451.83437947205596 418.36455664314394 446.69019342724937 404.122388667853 451.4999999999999 391.4999999999999 C 438.7597597594486 390.1973934370205 429.1722212311628 379.3024632912411 429.4999999999999 366.4999999999999 C 429.50196571441853 365.2274966508281 429.60226430597345 363.9570478244658 429.7999999999999 362.6999999999999 C 428.41824146173155 362.98253522143176 427.0102504265697 363.1166296057329 425.5999999999999 363.09999999999985 C 416.61671318566596 362.83498476424575 408.9386360854092 356.55292168221746 406.8999999999999 347.79999999999984 C 403.8596858323323 349.84144923659665 400.2610102125339 350.88960718411073 396.5999999999999 350.79999999999984 C 388.3999999999999 350.49999999999983 381.5999999999999 344.79999999999984 379.7999999999999 337.09999999999985 C 378.0288229278987 338.0825274245905 376.02435772526724 338.5663638528119 373.9999999999999 338.49999999999983 C 372.3305493761301 338.4628296785557 370.690536584094 338.0528264805467 369.1999999999999 337.29999999999984 L 369.1999999999999 337.09999999999985 C 367.41606589217537 343.1874343773862 364.07226101671796 348.7029888111303 359.4999999999999 353.09999999999985 C 361.7373326156469 354.1475609459033 363.5655394365314 355.90545211983067 364.6999999999999 358.09999999999985 C 366.39785182751626 361.44728325982584 366.32291101679976 365.4191462278025 364.4999999999999 368.6999999999999 C 370.78756177046034 370.1239675924553 375.8137516077451 374.8363479118547 377.63955763075063 381.0191910352144 C 379.4653636537562 387.2020341585741 377.80538079322633 393.88885473773087 373.2999999999999 398.4999999999999 C 377.43698317272873 400.3109759116006 380.82616441596053 403.4883333271304 382.8999999999999 407.4999999999999 C 387.8999999999999 417.1999999999999 383.99999999999994 429.0999999999999 374.2999999999999 434.0999999999999 C 376.473764133883 436.09515340491214 378.2692570423531 438.46655913308024 379.5999999999999 441.0999999999999 C 385.7999999999999 453.19999999999993 381.0999999999999 468.0999999999999 368.9999999999999 474.0999999999999 C 367.10416601590157 475.0911001364694 365.08715060106005 475.8306724552446 362.9999999999999 476.2999999999999 L 362.9999999999999 476.3999999999999 C 366.32246519706325 482.843455251794 366.9456064426102 490.3438242339423 364.7320167020566 497.2472227468551 C 362.5184269615031 504.15062125976783 357.6499070837976 509.8900771643515 351.1999999999999 513.1999999999999 C 346.66991531161875 515.5289563965113 341.5751661935391 516.5340429572208 336.4999999999999 516.0999999999999 C 337.2574487384062 528.5200312174006 330.19238607414763 540.0955576164683 318.7999999999999 545.0999999999999 C 320.13904930186686 546.7641921003254 321.1563995990784 548.6632459884537 321.7999999999999 550.6999999999999 C 321.76670929248223 550.702383997082 321.73329070751754 550.702383997082 321.6999999999999 550.6999999999999 z" stroke-linecap="round" />
</g>
		<g transform="matrix(1 0 0 1 0 0)"  >
<path style="stroke: none; stroke-width: 1; stroke-dasharray: none; stroke-linecap: butt; stroke-dashoffset: 0; stroke-linejoin: miter; stroke-miterlimit: 4; fill: rgb(255,255,255); fill-rule: nonzero; opacity: 1;" vector-effect="non-scaling-stroke"  transform=" translate(-331.25, -327.45)" d="M 623.8 10 L 38.7 10 C 22.849427679856234 10 10 22.849427679856227 10 38.699999999999996 L 10 616.2 C 9.999999999999991 623.811713258395 13.023741318487481 631.1116705585954 18.40603537994608 636.493964620054 C 23.788329441404677 641.8762586815126 31.088286741605092 644.9000000000001 38.70000000000002 644.9000000000001 L 623.8000000000001 644.9000000000001 C 631.411713258395 644.9000000000001 638.7116705585954 641.8762586815126 644.0939646200541 636.493964620054 C 649.4762586815126 631.1116705585954 652.5000000000001 623.811713258395 652.5000000000001 616.2 L 652.5000000000001 38.7 C 652.5000000000001 31.08828674160506 649.4762586815126 23.788329441404628 644.093964620054 18.406035379946026 C 638.7116705585953 13.023741318487424 631.4117132583949 9.99999999999995 623.8 9.999999999999993 z M 597.3 398.8 C 593.5 404.8 587.5 408.8 581.0999999999999 410.40000000000003 C 587.5864174608612 418.01106458348863 588.7233645094194 428.82791495285335 583.9612009663053 437.62130530920825 C 579.1990374231912 446.41469566556316 569.5186983403548 451.37331802926076 559.5999999999999 450.1 C 559.5427482690029 449.7316838165049 559.476059676377 449.3648965570623 559.3999999999999 449 C 560.9052662853057 456.62721537636855 558.0736046211316 464.4619776935127 552.0398365675809 469.36441423702274 C 546.0060685140302 474.2668507805327 537.757561011171 475.43472591160304 530.5999999999999 472.4 C 530.3336181343487 475.06933140117064 529.4429564531753 477.638547789171 527.9999999999999 479.9 C 525.2999999999998 484.2 520.9999999999999 486.9 516.4999999999999 487.59999999999997 C 517.4013752433084 491.6017289777398 517.6043624925759 495.72913637951166 517.0999999999999 499.79999999999995 C 514.8038894188746 519.376188707685 497.07720468335157 533.3874319456111 477.4999999999999 531.0999999999999 L 478.4999999999999 531.0999999999999 C 479.5968898258153 534.385107517525 480.1046958823358 537.8381887018644 479.9999999999999 541.3 C 479.563746682154 557.554983079777 466.0561176276054 570.3917034064507 449.7999999999999 570 C 445.4138360025585 569.8869013644423 441.1085997092979 568.7935080201221 437.1999999999999 566.8 C 436.02792613565975 576.9813701341872 429.1109354370633 585.583818346398 419.418549959912 588.9142415500006 C 409.72616448276074 592.2446647536033 398.98253824582594 589.7106223606498 391.7999999999999 582.4 C 388.61167026767254 591.8762561041502 379.9239759071561 598.4161805692581 369.93554883978754 598.8591263372123 C 359.94712177241905 599.3020721051666 350.7146308610411 593.5568343483468 346.6999999999999 584.4 C 340.8462270061777 589.2029644944492 332.8600947033806 590.482656691434 325.7986926226907 587.7492107247153 C 318.7372905420008 585.0157647579966 313.69423253582113 578.692515022053 312.59999999999985 571.1999999999999 C 310.1705418079657 572.3741330971644 307.4977108420708 572.9566731794749 304.79999999999984 572.9 C 296.09999999999985 572.6999999999999 288.99999999999983 565.9 288.1999999999998 557.4 L 288.29999999999984 557.1999999999999 C 284.2866935559639 563.5344668869892 278.3705822582034 568.4353874886843 271.39999999999986 571.1999999999999 C 253.4786251784914 578.3724035819154 233.10195797125436 570.0002511858984 225.39999999999986 552.3 C 223.05200081103672 554.832208834652 220.27624310133936 556.9309524688134 217.19999999999987 558.5 C 202.72673259750124 565.8578276605153 185.02842234962628 560.1371617218083 177.59999999999988 545.7 C 175.56857775473284 541.8007890099401 174.44071310654718 537.4943967168675 174.29999999999987 533.1 C 164.81255516863317 536.8750479844872 154.00152785374087 534.8860158203172 146.47894085664558 527.9814317210003 C 138.9563538595503 521.0768476216833 136.0501009569905 510.4755149403733 138.9999999999999 500.70000000000005 C 129.15855541982788 502.44811136293254 119.2549805857986 497.9657793049128 114.07331676461925 489.4182483862152 C 108.89165294343988 480.87071746751764 109.49821666179248 470.0169542663442 115.59999999999988 462.1 C 108.56623084786445 459.25972260466807 103.61091621719483 452.8469384119374 102.63689115211065 445.3241490794788 C 101.66286608702647 437.8013597470202 104.82154543233092 430.338003331505 110.89999999999988 425.8 C 108.71992842158976 424.2356791116696 106.93858156867472 422.1802788967677 105.69999999999987 419.8 C 103.05516832913364 414.66132396379777 103.16786987953886 408.53787305844776 105.99999999999987 403.5 L 106.49999999999987 403.6 C 101.66724476603298 402.4220228435068 97.13598921310304 400.2415690436007 93.19999999999987 397.20000000000005 C 77.83756155944465 385.36719951627737 74.72976026984291 363.43500184394514 86.19999999999987 347.80000000000007 C 82.86377915071608 347.0563158158374 79.68279887523316 345.736547403669 76.79999999999986 343.9000000000001 C 63.08820738807174 335.13755975345055 59.06128586780663 316.9269257673627 67.79999999999987 303.2000000000001 C 70.17878587825913 299.5079816927903 73.35714736733401 296.3979720636955 77.09999999999987 294.1000000000001 C 68.94551381052271 287.85978708537596 65.11090394684163 277.4833422095389 67.24779456780269 267.439956291022 C 69.38468518876373 257.39657037250504 77.11142853471011 249.4799878816951 87.09999999999987 247.10000000000008 C 80.66705996168055 239.4701733580529 79.57756632731216 228.67384433294586 84.35642835400756 219.91259728400428 C 89.13529038070297 211.1513502350627 98.8023119745593 206.22221133444188 108.69999999999987 207.50000000000009 L 108.79999999999987 208.60000000000008 C 107.24944778710615 200.957087244522 110.06196258991204 193.0843568875632 116.10429226655872 188.15398371391052 C 122.1466219432054 183.22361054025782 130.423535570263 182.04767533812662 137.59999999999985 185.10000000000008 C 137.86638186565108 182.4306685988294 138.75704354682455 179.86145221082904 140.19999999999987 177.60000000000008 C 142.89999999999986 173.4000000000001 147.19999999999987 170.70000000000007 151.79999999999987 169.9000000000001 C 150.8767485522074 165.93632873095925 150.63998461562733 161.84369497007526 151.09999999999988 157.8000000000001 C 153.35188255774108 138.5712669099927 170.51986809175864 124.6416869159836 189.79999999999987 126.40000000000009 C 188.68076689278118 123.15264635905805 188.1392439242836 119.734282620417 188.1999999999999 116.30000000000011 C 188.6999999999999 100.0000000000001 202.1999999999999 87.1000000000001 218.3999999999999 87.6000000000001 C 222.77890115557403 87.67865629717939 227.0844702898999 88.73796298895799 230.99999999999986 90.70000000000009 C 232.2049098648408 80.53611383932453 239.1345145447178 71.96506325150577 248.82061828594328 68.6581335601182 C 258.5067220271688 65.35120386873064 269.23105322192805 67.89502965353482 276.39999999999986 75.20000000000007 C 279.56561362496484 65.71370520333437 288.24025156351684 59.15171266762917 298.22997283000853 58.68655934923377 C 308.21969409650023 58.22140603083837 317.4665704940034 63.94891563737026 321.4999999999999 73.10000000000008 C 327.3537729938221 68.29703550555088 335.3399052966192 67.01734330856605 342.4013073773091 69.75078927528472 C 349.4627094579989 72.48423524200338 354.50576746417863 78.80748497794694 355.5999999999999 86.3000000000001 C 358.037878383407 85.16033411593013 360.7103215670133 84.61214064236987 363.3999999999999 84.7000000000001 C 372.19999999999993 84.9000000000001 379.19999999999993 91.7000000000001 380.0999999999999 100.10000000000011 L 379.8999999999999 100.4000000000001 C 383.8920284275491 94.02367740247979 389.8115686985724 89.0848893657089 396.7999999999999 86.30000000000013 C 414.7999999999999 79.00000000000011 435.1999999999999 87.50000000000011 442.7999999999999 105.30000000000011 C 445.1396551971788 102.7320277778188 447.9159226533428 100.59904180540009 451 99 C 465.4977075933935 91.57464770809752 483.26990022158145 97.30472492826897 490.7 111.79999999999998 C 492.6967050564516 115.70739499002268 493.7902858165015 120.01336923271936 493.9 124.39999999999999 C 503.4192962823572 120.54567935293038 514.3070229138351 122.51563783871667 521.8722672108005 129.46113048423575 C 529.4375115077659 136.40662312975482 532.3286294672441 147.08673383058078 529.3 156.89999999999998 C 539.1055181715847 155.1958051431721 548.9545588545814 159.66866898871046 554.1237288072647 168.17349989376632 C 559.292898759948 176.6783307988222 558.7280213777797 187.4806928969544 552.6999999999999 195.39999999999998 C 559.7337691521353 198.2402773953319 564.689083782805 204.6530615880626 565.6631088478891 212.1758509205212 C 566.6371339129734 219.69864025297983 563.4784545676689 227.16199666849505 557.4 231.7 C 559.5436265987223 233.27600506540807 561.2899261364015 235.33047510973665 562.5 237.7 C 565.1809358802069 242.86538477143245 565.0680565555181 249.0361211877576 562.2 254.1 C 566.8841774764637 255.299552838641 571.273923880591 257.44338247786595 575.1 260.4 C 590.3675719644301 272.25529120255453 593.4261583736957 294.10866946006064 582 309.7 C 585.3427481955658 310.4745734499953 588.5240975194442 311.8283391197308 591.4 313.7 C 605.0505999112111 322.45829576110464 609.0707462498384 340.59362257757897 600.4 354.3 C 598.061574560995 358.01739839390655 594.9173983939064 361.16157456099506 591.1999999999999 363.5 C 602.0394349749637 371.92864556371126 604.6822922575128 387.22255737911854 597.3 398.8 z" stroke-linecap="round" />
</g>
		<g transform="matrix(1 0 0 1 49.75 -50.6)"  >
<path style="stroke: none; stroke-width: 1; stroke-dasharray: none; stroke-linecap: butt; stroke-dashoffset: 0; stroke-linejoin: miter; stroke-miterlimit: 4; fill: rgb(255,255,255); fill-rule: nonzero; opacity: 1;" vector-effect="non-scaling-stroke"  transform=" translate(-381, -276.85)" d="M 316.6 99.8 C 311.9201682563485 104.56204281124333 305.4745205203579 107.16927110894741 298.8 107 C 293.02320463315584 106.8785872568469 287.4841269964842 104.6771589653492 283.2 100.8 C 279.97509374739485 112.64114810848902 269.067757538782 120.73901893003494 256.8 120.4 C 253.46971135234497 120.34883479457058 250.17891644650737 119.67032038099582 247.10000000000002 118.4 C 246.3784887316165 133.7090270996893 234.01772079868763 145.89569970961915 218.70000000000002 146.4 C 221.66280991986096 152.5154803153005 222.80815366979846 159.35283542856365 222.00000000000003 166.1 C 220.59411449525376 178.0048539523141 213.30717266070798 188.40940492225832 202.60000000000002 193.79999999999998 C 207.90000000000003 199.29999999999998 211.00000000000003 206.79999999999998 210.8 215.1 C 210.64229153295702 221.41286290459107 208.4698059738739 227.5098385058889 204.60000000000002 232.5 C 213.20000000000002 237.3 218.8 246.5 218.60000000000002 257 C 218.48220095056487 260.0861103313926 217.8396821285645 263.129620540868 216.70000000000002 266 C 229.479627895576 267.3051734225467 239.08107372570487 278.25955025601195 238.70000000000002 291.1 C 238.6929510852112 292.33911242802304 238.59266794986092 293.57593776400984 238.4 294.8 C 239.7853569760831 294.55099794452514 241.19331640665226 294.4504294137702 242.6 294.5 C 251.79999999999998 294.7 259.4 301.2 261.4 309.8 C 264.41222377273726 307.7783449744751 267.9729030880831 306.7310863523145 271.59999999999997 306.8 C 279.9 307 286.59999999999997 312.8 288.49999999999994 320.5 C 291.6380705166932 318.7349484086815 295.43334370192645 318.58611416612337 298.69999999999993 320.1 C 299.8697116753749 313.85331486342994 302.66333099451145 308.0246523333796 306.79999999999995 303.20000000000005 C 305.4623178488441 302.188853765634 304.3687524872336 300.89024489872156 303.59999999999997 299.40000000000003 C 301.9063848996681 296.0960981562583 301.94376634742935 292.1710461413332 303.7 288.90000000000003 C 297.3881895015119 287.4700663403377 292.34981031179075 282.7269986977986 290.54170851354615 276.5129476900384 C 288.73360671530156 270.29889668227827 290.4407100326422 263.5930966714636 295 259 C 290.86301682727117 257.18902408839926 287.47383558403936 254.0116666728695 285.4 250 C 282.8656075198869 245.03898797656507 282.53839444285506 239.23983496114639 284.4986342237878 234.02521651478156 C 286.45887400472054 228.81059806841674 290.5251847736919 224.66302518488973 295.7 222.6 C 295.1567287375737 222.80992525604475 294.6228865858238 223.0434811974353 294.09999999999997 223.29999999999998 C 291.8904180612621 221.31342304363378 290.06063347283424 218.9414800586347 288.7 216.29999999999998 C 285.19689331407324 209.50847617977328 285.06335425128816 201.4713317016919 288.33890401997365 194.56717889583976 C 291.61445378865915 187.66302608998762 297.9239196738606 182.68264816393395 305.4 181.09999999999997 L 305.4 180.99999999999997 C 298.5334250561921 167.631613137582 303.7630774429397 151.2274898389804 317.09999999999997 144.29999999999995 C 321.6494429749228 141.91792932887603 326.78206947005526 140.87753206634918 331.9 141.29999999999995 C 331.179458134958 129.56120458436962 337.45363762949466 118.50296322524883 347.9 113.09999999999995 C 348.4264272309079 112.85118904243 348.9599865859226 112.61775682461106 349.5 112.39999999999995 C 348.19646525260566 110.72801383885862 347.2132760387521 108.82944156383103 346.6 106.79999999999995 C 342.9916719427175 109.19707667312025 338.7303239011031 110.4195945539113 334.40000000000003 110.29999999999995 C 327.0513889408904 110.10817879018195 320.3380486570634 106.08776031512174 316.70000000000005 99.69999999999996 z M 531.3 316.8 C 521.8067119701342 309.4312114283851 516.6578784932002 297.78056633459295 517.5999999999999 285.80000000000007 C 510.19999999999993 287.5 502.0999999999999 286.40000000000003 495.19999999999993 281.90000000000003 C 489.836834842113 278.51992318272596 485.7005318061895 273.50728475783563 483.3999999999999 267.6 C 474.62362304647587 272.5771428761089 463.8176734347787 272.3079555192339 455.2999999999999 266.90000000000003 C 452.6538326643026 265.2137126049085 450.31939829814405 263.0822725314593 448.3999999999999 260.6 C 440.7999999999999 270.8 426.49999999999994 273.6 415.5999999999999 266.6 C 414.54632962755727 265.94281106764413 413.54350886246084 265.2074091732401 412.5999999999999 264.40000000000003 C 412.1365776602209 265.7269652442203 411.53317615019273 267.0008128765021 410.7999999999999 268.20000000000005 C 405.92554372313936 275.769756433448 396.55767274899074 279.09781585847446 387.9999999999999 276.30000000000007 C 388.14878414280776 279.93965919838695 387.1709785358888 283.53658696669584 385.1999999999999 286.6000000000001 C 380.7999999999999 293.6000000000001 372.2999999999999 296.4000000000001 364.7999999999999 294.00000000000006 C 364.7574399843492 296.01849469274424 364.1700579616201 297.9879520630713 363.0999999999999 299.70000000000005 C 362.4999999999999 300.6 361.7999999999999 301.40000000000003 361.0999999999999 302.00000000000006 C 365.0746057919273 306.28383060419924 367.9562398575399 311.46391088881245 369.4999999999999 317.1000000000001 C 371.0593874655897 316.35222175806166 372.7707596921897 315.97571986820964 374.4999999999999 316.00000000000006 C 378.2381889573599 316.10421707169485 381.68270797489515 318.05111912508437 383.6999999999999 321.20000000000005 C 387.95278975814705 316.34760653945756 394.4984982396292 314.1765673838953 400.8081619970473 315.52567312150114 C 407.11782575446546 316.874778859107 412.2033806355467 321.5327657731121 414.09999999999985 327.70000000000005 C 417.6737820584959 324.9414042388884 422.08662755257916 323.4939909168291 426.59999999999985 323.6 C 437.59999999999985 323.8 446.09999999999985 332.90000000000003 445.89999999999986 343.8 C 445.86723611361487 344.46962271343233 445.80048346055963 345.13714924398516 445.6999999999999 345.8 L 445.89999999999986 343.90000000000003 C 448.69155319626526 342.91136048095854 451.63922117392775 342.4370231052427 454.59999999999985 342.50000000000006 C 461.1337750452464 342.6306636127388 467.344569120177 345.3662502891105 471.8515218318331 350.09855063634933 C 476.35847454348914 354.8308509835882 478.78802299899456 361.16762396417437 478.59999999999985 367.70000000000005 C 478.5415021676826 369.83450044135657 478.2053434364397 371.9523004481868 477.59999999999985 374.00000000000006 C 492.6999999999999 374.40000000000003 504.59999999999985 386.90000000000003 504.1999999999999 402.00000000000006 C 504.07449684916895 407.09497960874876 502.51481345170794 412.05130684956936 499.6999999999999 416.30000000000007 C 510.4812836545684 421.2495925354443 517.283009500007 432.14021715501934 517 444 C 516.8809409368596 447.32248332779307 516.2048763596703 450.60139652716157 515 453.7 L 515.1 453.5 L 517.8000000000001 454 C 517.600337185992 449.6572596550971 518.7533708207797 445.3595888345246 521.1 441.7 C 525.0518449550939 435.50523078072325 531.9541058776887 431.82655325604367 539.3000000000001 432 C 537.6196444571482 425.52478985156404 538.7063267351202 418.64246875774154 542.3000000000001 413 C 545.4482431999595 408.14906361096126 550.2421759849881 404.59800228871785 555.8000000000001 403 C 547.2411432317821 394.14819604730354 545.8759848392573 380.5793489943297 552.5000000000001 370.2 C 554.3236216052688 367.3849600053563 556.6650733586978 364.9417060017782 559.4000000000001 363 C 546.5632175030098 354.4957296560899 542.4629291551863 337.52751511031005 550.0000000000001 324.1 C 543.2289496579201 323.4976836707906 536.7731955566104 320.9639737278035 531.4000000000001 316.8 z" stroke-linecap="round" />
</g>
		<g transform="matrix(1 0 0 1 2.85 1.3)"  >
<path style="stroke: none; stroke-width: 1; stroke-dasharray: none; stroke-linecap: butt; stroke-dashoffset: 0; stroke-linejoin: miter; stroke-miterlimit: 4; fill: rgb(255,255,255); fill-rule: nonzero; opacity: 1;" vector-effect="non-scaling-stroke"  transform=" translate(-334.1, -328.75)" d="M 532.7 236.4 C 533.328692680327 235.35823800391978 534.0661547017951 234.38612897562095 534.9000000000001 233.5 C 531.0783199131816 231.48673007930464 527.9704452527309 228.3439354788488 526.0000000000001 224.5 C 522.6459330482335 217.96590500715837 522.9492964240786 210.15429807914504 526.8000000000001 203.90000000000003 C 520.6 202.1 515.2 197.9 512.0000000000001 191.70000000000002 C 509.3407248298347 186.55682592764742 508.6304071423748 180.62567323735752 510.0000000000001 175.00000000000003 C 498.06604419185817 177.8803308559479 485.71103060863743 172.21933801012437 480.10000000000014 161.30000000000004 C 478.56814696987516 158.30579309436828 477.6180271574664 155.04823945182392 477.3000000000001 151.70000000000005 C 463.5159723175875 158.4137481148446 446.8867707623564 153.40757487177763 439.10000000000014 140.20000000000005 C 435.1495754682159 145.71604703208848 429.70119186524994 149.98452590574973 423.40000000000015 152.50000000000006 C 412.272249831118 156.95416338319586 399.65191967525783 155.52686413937832 389.8000000000001 148.70000000000005 L 389.8000000000001 148.40000000000003 C 387.4535973728996 156.05342473183177 382.11707744800617 162.43561410146782 375.0000000000001 166.10000000000002 C 369.37879863578985 169.03432332903887 362.9638693015528 170.08595108874985 356.7000000000001 169.10000000000002 C 356.5260632495212 179.15350054558525 350.8398386174537 188.29756448093693 341.9000000000001 192.90000000000003 C 339.14770620563206 194.3281011289619 336.1714877078244 195.2750797419007 333.1000000000001 195.70000000000005 C 338.00000000000006 207.40000000000003 333.1000000000001 221.10000000000005 321.6000000000001 227.00000000000006 C 320.5059411338929 227.58466808579152 319.3693919274824 228.08608685332558 318.2000000000001 228.50000000000006 C 319.08824389520913 229.5820756481604 319.8592223247021 230.75530369304101 320.5000000000001 232.00000000000006 C 324.7000000000001 240.20000000000005 322.60000000000014 250.00000000000006 316.0000000000001 255.80000000000007 C 319.22273135114267 257.50089125502643 321.84194124434026 260.1550239468 323.5000000000001 263.4000000000001 C 327.3000000000001 270.7000000000001 325.5000000000001 279.4000000000001 319.5000000000001 284.7000000000001 C 321.2422554924031 285.7654400099679 322.66004080580575 287.2869657121561 323.60000000000014 289.1000000000001 C 324.10000000000014 290.00000000000006 324.40000000000015 290.9000000000001 324.60000000000014 291.80000000000007 C 330.4712061743041 290.1572018084758 336.6616124708647 290.0196372241078 342.60000000000014 291.4000000000001 C 342.8649737149505 290.05271928501696 343.37327917522106 288.7650121189982 344.10000000000014 287.6000000000001 C 346.0974635413202 284.4796819781633 349.4976291371321 282.53673020912794 353.20000000000016 282.4000000000001 C 351.22336743186446 276.24196926441346 352.7424333265014 269.49633075243537 357.16788824425987 264.78000086355655 C 361.59334316201836 260.0636709746778 368.2287669011497 258.11884400841467 374.50000000000017 259.7000000000001 C 374.0048099565319 255.21568619639208 375.06381320037207 250.69727235600743 377.50000000000017 246.9000000000001 C 383.3000000000002 237.7000000000001 395.50000000000017 235.00000000000009 404.70000000000016 240.9000000000001 C 405.3245716402882 237.98243945077928 406.47681437445044 235.2035010919173 408.10000000000014 232.7000000000001 C 411.5923976638951 227.1713098267469 417.15009530820873 223.26822664380816 423.5359378471915 221.85958490726784 C 429.9217803861743 220.45094317072753 436.6057567999773 221.65365707614052 442.10000000000014 225.2000000000001 C 443.87011021839163 226.3539574114216 445.48349936325917 227.73206063932923 446.90000000000015 229.3000000000001 C 450.7833242022486 223.18430635763136 456.9382096886486 218.8628812995665 464.0092548349887 217.2873699141751 C 471.08029998132884 215.71185852878364 478.48761723696515 217.01146653026746 484.60000000000014 220.9000000000001 C 488.9359079246004 223.64398481237902 492.4036836173507 227.56257134518685 494.60000000000014 232.2000000000001 C 504.10000000000014 225.8000000000001 516.9000000000001 225.2000000000001 527.1000000000001 231.8000000000001 C 529.147443077327 233.09898888757976 531.0281068759172 234.6438198649931 532.7000000000002 236.4000000000001 z M 344.70000000000005 368.4 C 343.64050696454416 366.44317912817445 343.1879298430205 364.215107145289 343.40000000000003 362 C 340.4575704268971 362.74033291541974 337.43412051287186 363.10986568268953 334.40000000000003 363.1 C 331.40000000000003 363.1 328.50000000000006 362.8 325.8 362.1 C 326.2655617566935 364.84064391477057 325.6952647268509 367.6564854996182 324.2 370 C 322.18270797489527 373.1488808749157 318.73818895736 375.0957829283052 315 375.2 C 316.91201608255216 381.3242059687623 315.3803803917902 388.0034939254299 310.99101551599955 392.6827225194332 C 306.60165064020885 397.3619511134364 300.03380957476463 399.31701101951705 293.8 397.8 C 294.29519004346827 402.28431380360803 293.2361867996281 406.8027276439927 290.8 410.6 C 284.9061560155316 419.7783038747748 272.6992178949171 422.46114741776694 263.5 416.6 C 262.875428359712 419.51756054922083 261.7231856255497 422.2964989080828 260.1 424.8 C 256.6082773024668 430.30068918530105 251.06935721830953 434.18402513637034 244.7078407698738 435.59144027982956 C 238.3463243214381 436.9988554232888 231.68621579332498 435.81441960767756 226.20000000000002 432.3 C 224.39538292358216 431.15214858294325 222.74816053129715 429.7738604587864 221.3 428.2 L 221.3 428.3 C 213.18016112392107 441.00075398389544 196.30293250091307 444.7164303120378 183.60000000000002 436.6 C 179.27833447599585 433.88302120737 175.81194144170715 430.0006610089667 173.60000000000002 425.40000000000003 C 164.10000000000002 431.8 151.40000000000003 432.40000000000003 141.10000000000002 425.8 C 139.05314451667135 424.50019946270396 137.17257520204578 422.9554460971187 135.50000000000003 421.2 C 134.86435068100113 422.2061129300451 134.12715799220499 423.1443581703311 133.30000000000004 424 C 137.15879324169973 425.99673802347945 140.3032619765206 429.1412067583003 142.30000000000004 433 C 145.6238635458925 439.55140149671337 145.28256079300257 447.363442285083 141.40000000000003 453.6 C 147.60000000000002 455.40000000000003 153.10000000000002 459.6 156.20000000000005 465.8 C 158.8592751701655 470.94317407235263 159.56959285762537 476.8743267626425 158.20000000000005 482.5 C 170.19039035353862 479.58467815374144 182.61141659279312 485.2983502237985 188.20000000000005 496.3 C 189.68735136870572 499.269497488499 190.60325454570255 502.4921197779324 190.90000000000003 505.8 C 204.70927128337811 499.02365182171593 221.40761114386655 504.0375136597216 229.20000000000005 517.3 C 233.1504245317843 511.7839529679115 238.59880813475024 507.5154740942503 244.9 504.99999999999994 C 256.40000000000003 500.3999999999999 268.90000000000003 502.19999999999993 278.50000000000006 508.79999999999995 C 280.88283236017423 501.27135596673844 286.1751699701283 495.00695634679283 293.20000000000005 491.4 C 298.8324776287562 488.49987568248116 305.2468380678773 487.4833923342052 311.50000000000006 488.5 C 311.6000000000001 478.8 317.00000000000006 469.4 326.30000000000007 464.6 C 329.0840181212047 463.16288100544466 332.0946423434921 462.21571832877 335.20000000000005 461.8 C 330.20000000000005 450.1 335.20000000000005 436.40000000000003 346.6 430.5 C 347.7291416499734 429.944500755722 348.89924277465514 429.47646030584934 350.1 429.1 C 349.17025028230313 427.9917571511544 348.3653973536664 426.78447775819933 347.70000000000005 425.5 C 343.50000000000006 417.3 345.70000000000005 407.6 352.20000000000005 401.8 C 348.9772686488575 400.09910874497365 346.3580587556599 397.4449760532001 344.70000000000005 394.2 C 341.00000000000006 386.8 342.80000000000007 378.09999999999997 348.70000000000005 372.8 C 346.9945615093813 371.7205456091867 345.61251474061515 370.2002941635439 344.70000000000005 368.40000000000003 z" stroke-linecap="round" />
</g>
		<g transform="matrix(1 0 0 1 -121.75 -27.25)"  >
<path style="stroke: none; stroke-width: 1; stroke-dasharray: none; stroke-linecap: butt; stroke-dashoffset: 0; stroke-linejoin: miter; stroke-miterlimit: 4; fill: rgb(255,255,255); fill-rule: nonzero; opacity: 1;" vector-effect="non-scaling-stroke"  transform=" translate(-209.5, -300.2)" d="M 300.4 339.5 C 298.4373243007393 340.8645801704138 296.0895389222716 341.5654116266728 293.7 341.5 C 289.98079792625833 341.4180186784131 286.540216401276 339.5107397895642 284.5 336.4 C 280.2405197104603 341.19886067672445 273.72789742370304 343.33380558135 267.45407320001726 341.98793569838114 C 261.1802489763314 340.64206581541225 256.1163546204767 336.0237097498303 254.2 329.9 C 250.58608816585163 332.6448027681311 246.13535232587913 334.05773478082085 241.6 333.9 C 230.7 333.7 222.1 324.59999999999997 222.4 313.7 C 219.57056866542476 314.6666843064478 216.58808493018577 315.1072784946081 213.6 315 C 205.96507566753118 314.8202368896111 198.85065958174994 311.0904517600454 194.359934720295 304.9132538065157 C 189.86920985884007 298.736055852986 188.51587253547652 290.8180579088372 190.7 283.5 L 190.6 283.5 C 175.6 283.2 163.6 270.7 164 255.6 C 164.12550315083092 250.50502039125132 165.68518654829197 245.5486931504307 168.5 241.29999999999998 C 157.796828641565 236.2908788530287 151.0816257550988 225.41303558079977 151.4 213.60000000000002 C 151.46609875662062 210.32259232533903 152.07432172119942 207.0787365142522 153.20000000000002 204 C 152.2882338155114 203.90471925539157 151.38542333544333 203.73753212945303 150.50000000000003 203.5 C 150.69966281400812 207.84274034490292 149.5466291792204 212.14041116547546 147.20000000000005 215.8 C 143.24815504490618 221.99476921927672 136.34589412231145 225.67344674395633 129.00000000000003 225.5 C 130.60000000000002 231.8 129.70000000000002 238.6 126.00000000000003 244.5 C 122.89410874222939 249.3693388703249 118.13643680953106 252.9553453270602 112.60000000000002 254.6 C 120.90000000000002 263.3 122.60000000000002 276.8 115.80000000000003 287.4 C 114.00591889684613 290.20598683681135 111.69897407099215 292.64863429948025 109.00000000000003 294.59999999999997 C 121.78015814086852 303.09741768132193 125.87405580675019 319.995633578791 118.40000000000003 333.4 C 125.14664856025054 334.05001835473405 131.5662073496572 336.6178418704967 136.90000000000003 340.79999999999995 C 146.36230405716714 348.1486608428276 151.50757592923028 359.75369010171454 150.60000000000002 371.69999999999993 C 158.10000000000002 369.99999999999994 166.10000000000002 371.19999999999993 173.10000000000002 375.69999999999993 C 178.4094349939954 379.0702667420613 182.50748141319545 384.0439641055349 184.8 389.8999999999999 C 193.59471277493824 384.9530499875242 204.4009811256158 385.2607017555151 212.9 390.69999999999993 C 215.53804169445564 392.3563306444723 217.87197568530837 394.45348872320955 219.8 396.8999999999999 C 227.4 386.69999999999993 241.8 383.8999999999999 252.60000000000002 390.8999999999999 C 253.65751270863788 391.5885845294556 254.66047315216693 392.3575208694945 255.60000000000002 393.19999999999993 C 256.09521127279163 391.8688548770644 256.7322106653266 390.59485609199453 257.5 389.3999999999999 C 262.5 381.5999999999999 271.9 378.49999999999994 280.3 381.19999999999993 C 280.14210214172874 377.60457478403697 281.08396084898067 374.0464418899743 283 371 C 287.5 364 296 361.3 303.4 363.7 C 303.4822111968385 359.3711753402206 306.05206983044496 355.4774501377865 310 353.7 C 305.7413552070029 349.8551460940268 302.45191232169896 345.0580418862919 300.4 339.7 z" stroke-linecap="round" />
</g>
</g>
</g>
</svg>